<svg xmlns="http://www.w3.org/2000/svg" width="24.626" height="20" viewBox="0 0 24.626 20"><path d="M22.094,8.366c.016.219.016.438.016.656A14.261,14.261,0,0,1,7.75,23.381,14.266,14.266,0,0,1,0,21.115a10.516,10.516,0,0,0,1.219.062,10.11,10.11,0,0,0,6.266-2.156,5.055,5.055,0,0,1-4.719-3.5,6.411,6.411,0,0,0,.953.078,5.337,5.337,0,0,0,1.328-.172A5.047,5.047,0,0,1,1,10.475v-.062a5.077,5.077,0,0,0,2.281.64A5.055,5.055,0,0,1,1.72,4.3,14.346,14.346,0,0,0,12.126,9.584,5.7,5.7,0,0,1,12,8.428a5.052,5.052,0,0,1,8.735-3.453,9.951,9.951,0,0,0,3.2-1.219A5.033,5.033,0,0,1,21.72,6.537a10.123,10.123,0,0,0,2.906-.781A10.852,10.852,0,0,1,22.1,8.366Z" transform="translate(0 -3.381)" fill="#fff"/></svg>